<?xml version="1.0" encoding="UTF-8" standalone="no"?>
<svg
   xmlns:dc="http://purl.org/dc/elements/1.1/"
   xmlns:cc="http://creativecommons.org/ns#"
   xmlns:rdf="http://www.w3.org/1999/02/22-rdf-syntax-ns#"
   xmlns:svg="http://www.w3.org/2000/svg"
   xmlns="http://www.w3.org/2000/svg"
   viewBox="0 0 24 24"
   version="1.1"
   id="svg2"
   height="24"
   width="24">
  <defs
     id="defs4" />
  <metadata
     id="metadata7">
    <rdf:RDF>
      <cc:Work
         rdf:about="">
        <dc:format>image/svg+xml</dc:format>
        <dc:type
           rdf:resource="http://purl.org/dc/dcmitype/StillImage" />
        <dc:title></dc:title>
      </cc:Work>
    </rdf:RDF>
  </metadata>
  <path
     id="rect5408-5"
     style="color:#000000;clip-rule:nonzero;display:inline;overflow:visible;visibility:visible;opacity:1;isolation:auto;mix-blend-mode:normal;color-interpolation:sRGB;color-interpolation-filters:linearRGB;solid-color:#000000;solid-opacity:1;fill:#ffffff;fill-opacity:0.3019608;fill-rule:evenodd;stroke:none;stroke-width:2;stroke-linecap:butt;stroke-linejoin:bevel;stroke-miterlimit:4;stroke-dasharray:6, 6;stroke-dashoffset:0;stroke-opacity:1;marker:none;color-rendering:auto;image-rendering:auto;shape-rendering:auto;text-rendering:auto;enable-background:accumulate"
     d="m 17,16 1.076564,1.5 H 7.8425698 L 8.6775409,16 Z m 3,0 1e-6,-7.75 c 0,-0.4875 -0.0375,-0.88125 -0.16875,-1.21875 -0.13125,-0.3375 -0.35625,-0.6 -0.6375,-0.75 C 18.631251,5.9625 17.937447,6.0101063 17.000001,6 H 6.9999988 C 6,6 6,6 6,7 v 9 L 4,18.5 C 4,19.984672 4.3751233,20 6.25,20 h 13.5 C 21.625,20 22,19.97518 22,18.5 V 18 Z M 8.9336778,7.0425506 16.999999,6.9999996 c 2.000001,0 2.000001,0 2.038986,2.0237756 L 19,15.000001 7,14.999996 7.016275,8.9266894 C 7,6.9999994 7,6.9999994 8.9336819,7.042545 Z" />
  <g
     transform="matrix(0.1875,0,0,0.1875,49.6875,-67.29307)"
     id="Comp"
     style="stroke-width:5.33333349" />
  <path
     id="rect5408"
     style="color:#000000;clip-rule:nonzero;display:inline;overflow:visible;visibility:visible;opacity:1;isolation:auto;mix-blend-mode:normal;color-interpolation:sRGB;color-interpolation-filters:linearRGB;solid-color:#000000;solid-opacity:1;fill:#3c3c3c;fill-opacity:1;fill-rule:evenodd;stroke:none;stroke-width:2;stroke-linecap:butt;stroke-linejoin:bevel;stroke-miterlimit:4;stroke-dasharray:6, 6;stroke-dashoffset:0;stroke-opacity:1;marker:none;color-rendering:auto;image-rendering:auto;shape-rendering:auto;text-rendering:auto;enable-background:accumulate"
     d="m 5,15.5 -2,2 h 3 1 10 1 3 l -2,-2 H 16.430612 L 17.493387,17 H 6.590351 L 7.5496489,15.5 Z M 7.9999988,5 c -0.9375,0.01875 -1.63125,-0.01875 -2.19375,0.28125 -0.28125,0.15 -0.50625,0.4125 -0.6375,0.75 -0.13125,0.3375 -0.16875,0.7125 -0.16875,1.21875 v 7.750001 H 19.000001 V 7.25 c 0,-0.4875 -0.0375,-0.88125 -0.16875,-1.21875 -0.13125,-0.3375 -0.35625,-0.6 -0.6375,-0.75 C 17.631251,4.9625 16.937447,5.0101063 16.000001,5 Z m -0.066321,1.0425506 8.0663212,-0.042551 c 2.000001,0 2.000001,0 2.038986,2.0237756 L 18,14.000001 6,13.999996 6.016275,7.9266894 C 6,5.9999994 6,5.9999994 7.9336819,6.042545 Z M 3,18 c 0,1 0.3751233,1 2.25,1 h 13.5 C 20.625,19 21,19 21,18 h -7.5 v 0.500001 h -3 V 18 Z" />
  <style
     id="style5511"
     type="text/css">
	.st0{fill:#FFFFFF;}
	.st1{display:none;}
</style>
</svg>
