<?xml version="1.0" encoding="UTF-8" standalone="no"?>
<svg
   xmlns:dc="http://purl.org/dc/elements/1.1/"
   xmlns:cc="http://creativecommons.org/ns#"
   xmlns:rdf="http://www.w3.org/1999/02/22-rdf-syntax-ns#"
   xmlns:svg="http://www.w3.org/2000/svg"
   xmlns="http://www.w3.org/2000/svg"
   viewBox="0 0 24 24"
   version="1.1"
   id="svg2"
   height="24"
   width="24">
  <defs
     id="defs4" />
  <metadata
     id="metadata7">
    <rdf:RDF>
      <cc:Work
         rdf:about="">
        <dc:format>image/svg+xml</dc:format>
        <dc:type
           rdf:resource="http://purl.org/dc/dcmitype/StillImage" />
        <dc:title></dc:title>
      </cc:Work>
    </rdf:RDF>
  </metadata>
  <g
     transform="translate(0,-1028.3622)"
     id="layer1">
    <g
       id="flowRoot2985"
       style="font-style:normal;font-variant:normal;font-weight:normal;font-stretch:normal;font-size:20px;line-height:125%;font-family:'Liberation Sans';-inkscape-font-specification:'Liberation Sans';text-align:start;letter-spacing:0px;word-spacing:0px;writing-mode:lr-tb;text-anchor:start;fill:#3c3c3c;fill-opacity:1;stroke:none;stroke-width:1.25"
       transform="matrix(-0.8187176,-0.8189636,0.8189636,-0.8187176,9.1787264,1060.262)">
      <path
         style="fill:#3c3c3c;fill-opacity:1;stroke-width:1.25"
         id="path2994"
         d="m 6.5820312,11.515061 c -0.4427129,0.429698 -0.7682334,0.908213 -0.9765625,1.435547 -0.2148475,0.527352 -0.3222693,1.093758 -0.3222656,1.699219 -3.7e-6,0.585944 0.1074181,1.142584 0.3222656,1.669922 0.2148395,0.527349 0.5371048,1.005864 0.9667969,1.435547 0.3906196,0.384118 0.8658796,0.703128 1.4257813,0.957031 0.4817639,0.214847 1.0318935,0.322268 1.6503906,0.322266 0.6184805,2e-6 1.1816315,-0.107419 1.6894535,-0.322266 0.533843,-0.227861 1.009103,-0.546871 1.425781,-0.957031 0.429676,-0.429683 0.751941,-0.908198 0.966797,-1.435547 0.214831,-0.527338 0.322253,-1.083978 0.322265,-1.669922 -1.2e-5,-0.605461 -0.107434,-1.171867 -0.322265,-1.699219 -0.221366,-0.527334 -0.546887,-1.005849 -0.976563,-1.435547 l -0.341797,-0.341797 v 3.222657 H 10.751953 V 8.9662332 l 0.625,-0.625 h 5.429688 v 1.6601558 h -3.222657 l 0.341797,0.341797 c 0.585925,0.585949 1.031888,1.2435 1.337891,1.972657 0.299465,0.729175 0.449204,1.507169 0.449219,2.333984 -1.5e-5,0.807298 -0.149754,1.575527 -0.449219,2.304687 -0.312514,0.735682 -0.758477,1.393233 -1.337891,1.972657 -0.546887,0.540367 -1.197928,0.979819 -1.953125,1.318359 -0.670582,0.299481 -1.438811,0.44922 -2.3046872,0.449219 C 8.8346281,20.69475 8.0663997,20.545011 7.3632812,20.24553 6.6341095,19.933032 5.9830685,19.493579 5.4101562,18.927171 4.8307259,18.347747 4.3847628,17.690196 4.0722656,16.954514 3.7727842,16.225354 3.6230448,15.457125 3.6230469,14.649827 c -2.1e-6,-0.826815 0.1497373,-1.604809 0.4492187,-2.333984 0.292966,-0.696605 0.7389291,-1.354156 1.3378906,-1.972657 l 1.171875,1.171875" />
    </g>
  </g>
</svg>
