<?xml version="1.0" encoding="UTF-8" standalone="no"?>
<svg
   xmlns:dc="http://purl.org/dc/elements/1.1/"
   xmlns:cc="http://creativecommons.org/ns#"
   xmlns:rdf="http://www.w3.org/1999/02/22-rdf-syntax-ns#"
   xmlns:svg="http://www.w3.org/2000/svg"
   xmlns="http://www.w3.org/2000/svg"
   viewBox="0 0 24 24"
   version="1.1"
   id="svg2"
   height="24"
   width="24">
  <defs
     id="defs4" />
  <metadata
     id="metadata7">
    <rdf:RDF>
      <cc:Work
         rdf:about="">
        <dc:format>image/svg+xml</dc:format>
        <dc:type
           rdf:resource="http://purl.org/dc/dcmitype/StillImage" />
        <dc:title></dc:title>
      </cc:Work>
    </rdf:RDF>
  </metadata>
  <g
     transform="translate(0,-1028.3622)"
     id="layer1">
    <g
       style="stroke-width:1.25"
       transform="matrix(0.8,0,0,0.8,2.3,208.22243)"
       id="g4782">
      <path
         style="font-style:normal;font-variant:normal;font-weight:normal;font-stretch:normal;font-size:20px;line-height:125%;font-family:'Liberation Sans';-inkscape-font-specification:'Liberation Sans';text-align:start;letter-spacing:0px;word-spacing:0px;writing-mode:lr-tb;text-anchor:start;fill:#000000;fill-opacity:0.30196078;stroke:none;stroke-width:1.25"
         id="path2994-2"
         d="m 14.212896,1048.2143 c 0.892955,0.014 1.71595,-0.1431 2.468987,-0.4695 0.759727,-0.3197 1.449494,-0.7894 2.069304,-1.409 0.599837,-0.5997 1.059737,-1.2793 1.379701,-2.0389 0.319983,-0.7597 0.480036,-1.5793 0.480159,-2.4589 -0.0065,-0.793 -0.166343,-1.606 -0.479424,-2.439 -0.273095,-0.713 -0.726129,-1.3862 -1.359099,-2.0193 -0.632949,-0.6332 -1.319244,-1.0997 -2.058887,-1.3997 -0.779596,-0.3133 -1.592547,-0.4734 -2.438857,-0.4802 -0.879597,-10e-5 -1.69926,0.1597 -2.458993,0.4794 -0.759695,0.3198 -1.439466,0.7795 -2.039311,1.3791 -0.619801,0.6197 -1.089698,1.3093 -1.4096933,2.0689 -0.3132889,0.7663 -0.4700096,1.5893 -0.4701641,2.4689 l -1.054e-4,0.6997 3.2990488,-3.2981 1.698998,1.6995 -5.5583954,5.5567 -1.2794381,-1e-4 L 0.5,1040.9954 l 1.699509,-1.6991 3.2980572,3.2991 1.054e-4,-0.6997 c 2.047e-4,-1.1994 0.2169454,-2.3289 0.6502241,-3.3884 0.4399883,-1.0528 1.0831815,-2.0023 1.9295805,-2.8485 0.8264498,-0.8261 1.7661318,-1.4591 2.8190478,-1.8987 1.072947,-0.433 2.202482,-0.6494 3.388611,-0.6492 1.112859,0.01 2.229001,0.2236 3.348432,0.6502 0.992852,0.38 1.932344,1.0132 2.818478,1.8996 0.852839,0.8531 1.485753,1.7928 1.898742,2.819 0.426327,1.0663 0.642731,2.1825 0.649213,3.3487 -1.72e-4,1.1861 -0.216913,2.3156 -0.650225,3.3884 -0.439956,1.0528 -1.073153,1.9923 -1.899589,2.8185 -0.846412,0.8461 -1.796091,1.489 -2.849039,1.9287 -1.012938,0.413 -2.142474,0.6294 -3.388611,0.6492 l 3.6e-4,-2.3989" />
      <path
         style="font-style:normal;font-variant:normal;font-weight:normal;font-stretch:normal;font-size:20px;line-height:125%;font-family:'Liberation Sans';-inkscape-font-specification:'Liberation Sans';text-align:start;letter-spacing:0px;word-spacing:0px;writing-mode:lr-tb;text-anchor:start;fill:#dfdbd2;fill-opacity:1;stroke:none;stroke-width:1.25"
         id="path2994"
         d="m 13.712896,1046.7145 c 0.892955,0.014 1.71595,-0.1431 2.468987,-0.4695 0.759727,-0.3197 1.449494,-0.7894 2.069304,-1.409 0.599837,-0.5997 1.059737,-1.2793 1.379701,-2.0389 0.319983,-0.7597 0.480036,-1.5793 0.480159,-2.4589 -0.0065,-0.793 -0.166343,-1.606 -0.479424,-2.439 -0.273095,-0.713 -0.726129,-1.3862 -1.359099,-2.0193 -0.632949,-0.6332 -1.319244,-1.0997 -2.058887,-1.3997 -0.779596,-0.3133 -1.592547,-0.4734 -2.438857,-0.4802 -0.879597,-10e-5 -1.69926,0.1597 -2.458993,0.4794 -0.759695,0.3198 -1.4394659,0.7795 -2.0393109,1.3791 -0.6198013,0.6197 -1.089698,1.3093 -1.4096934,2.0689 -0.3132889,0.7663 -0.4700096,1.5893 -0.4701641,2.4689 l -1.054e-4,0.6997 3.2990488,-3.2981 1.698998,1.6995 -5.5583954,5.5567 -1.2794381,-10e-5 L 0,1039.4956 l 1.699509,-1.6991 3.2980572,3.2991 1.054e-4,-0.6997 c 2.047e-4,-1.1994 0.2169454,-2.3289 0.6502241,-3.3884 0.4399883,-1.0528 1.0831815,-2.0023 1.9295805,-2.8485 0.8264498,-0.8261 1.7661319,-1.4591 2.8190478,-1.8987 1.072947,-0.433 2.202482,-0.6494 3.388611,-0.6492 1.112859,0.01 2.229001,0.2236 3.348432,0.6502 0.992852,0.38 1.932344,1.0132 2.818478,1.8996 0.852839,0.8531 1.485753,1.7928 1.898742,2.819 0.426327,1.0663 0.642731,2.1825 0.649213,3.3487 -1.72e-4,1.1861 -0.216913,2.3156 -0.650225,3.3884 -0.439956,1.0528 -1.073153,1.9923 -1.899589,2.8185 -0.846412,0.8461 -1.796091,1.489 -2.849039,1.9287 -1.012938,0.413 -2.142474,0.6294 -3.388611,0.6492 l 3.6e-4,-2.3989" />
    </g>
  </g>
</svg>
