<?xml version="1.0" encoding="UTF-8" standalone="no"?>
<svg
   xmlns:dc="http://purl.org/dc/elements/1.1/"
   xmlns:cc="http://creativecommons.org/ns#"
   xmlns:rdf="http://www.w3.org/1999/02/22-rdf-syntax-ns#"
   xmlns:svg="http://www.w3.org/2000/svg"
   xmlns="http://www.w3.org/2000/svg"
   width="24"
   height="24"
   id="svg2"
   version="1.1"
   viewBox="0 0 24 24">
  <defs
     id="defs4" />
  <metadata
     id="metadata7">
    <rdf:RDF>
      <cc:Work
         rdf:about="">
        <dc:format>image/svg+xml</dc:format>
        <dc:type
           rdf:resource="http://purl.org/dc/dcmitype/StillImage" />
        <dc:title></dc:title>
      </cc:Work>
    </rdf:RDF>
  </metadata>
  <g
     style="stroke-width:5.33333349"
     id="Comp"
     transform="matrix(0.1875,0,0,0.1875,49.6875,-67.29307)" />
  <style
     type="text/css"
     id="style5511">
	.st0{fill:#FFFFFF;}
	.st1{display:none;}
</style>
  <path
     class="st0"
     d="M 7,7 C 4.9663691,6.9490145 5,7 5,9.2499995 l 2e-7,7.4986395 c 0,0.487501 0.0375,0.881251 0.16875,1.218751 0.13125,0.3375 0.35625,0.599999 0.6375,0.75 0.5624999,0.31875 1.2562499,0.281249 2.19375,0.281249 H 19 c 0.937501,-0.01874 1.63125,0.01875 2.19375,-0.281249 0.28125,-0.150001 0.50625,-0.4125 0.6375,-0.75 C 21.9625,17.62989 22,17.25489 22,16.748639 V 9.2499995 c 0,-0.4874999 -0.0375,-0.8812499 -0.16875,-1.21875 -0.13125,-0.3375 -0.3375,-0.5999999 -0.6375,-0.75 C 20.63125,6.9624996 19.937501,6.9999995 19,6.9999995 Z M 19,7.9999995 V 17.999528 L 7.0000001,18 l -2e-7,-10.0000005 z"
     id="path4297_4_-5"
     style="fill:#000000;fill-opacity:0.30196078;stroke-width:1" />
  <path
     class="st0"
     d="M 7,6 C 6.0624999,6.01875 5.3687499,5.98125 4.80625,6.28125 4.525,6.4312501 4.3,6.69375 4.16875,7.03125 4.0374999,7.3687501 4,7.74375 4,8.25 l 2e-7,7.49864 c 0,0.4875 0.0375,0.88125 0.16875,1.21875 0.13125,0.3375 0.35625,0.599999 0.6375,0.75 0.5624999,0.31875 1.2562499,0.281249 2.19375,0.281249 H 18 c 0.937501,-0.01874 1.63125,0.01875 2.19375,-0.281249 0.28125,-0.150001 0.50625,-0.4125 0.6375,-0.75 C 20.9625,16.62989 21,16.25489 21,15.74864 V 8.25 C 21,7.7625001 20.9625,7.3687501 20.83125,7.03125 20.7,6.69375 20.49375,6.4312501 20.19375,6.28125 19.63125,5.9625001 18.937501,6 18,6 Z m 12,1 v 9.999528 L 6.0000001,17 l -2e-7,-10 z m 0.500001,3.5 H 20.25 v 3 h -0.749999 z"
     id="path4297_4_"
     style="fill:#dfdbd2;fill-opacity:1;stroke-width:1" />
</svg>
